{"title":"18+ Black Widows 2016 UNCENSORED Movies HDRip XviD New ~ ☻rDX☻","uid":15499148,"size":740238020,"categoryP":"video","categoryS":"movies","magnet":"?xt=urn:btih:96feeba287615a1586d595814a732cc3cf82c914&amp;dn=18%2B+Black+Widows+2016+UNCENSORED+Movies+HDRip+XviD+New+%7E+%E2%98%BBrDX%E2%98%BB&amp;tr=udp%3A%2F%2Ftracker.leechers-paradise.org%3A6969&amp;tr=udp%3A%2F%2Fzer0day.ch%3A1337&amp;tr=udp%3A%2F%2Fopen.demonii.com%3A1337&amp;tr=udp%3A%2F%2Ftracker.coppersurfer.tk%3A6969&amp;tr=udp%3A%2F%2Fexodus.desync.com%3A6969","seeders":9,"leechers":7,"uploader":"basicssom","files":2,"time":1470474516,"description":"----------------------------------------------------------------\r\n18+ Black Widows 2016 UNCENSORED English Movies HDRip XviD AAC New Source with Sample ☻rDX☻\r\n\r\nSCREEN SHOTS &amp; POSTER:\r\n  \nhttp://postimage.co.nr/2016/8/advocate/index.htm  \nhttp://postimage.co.nr/2016/8/advocate/1.html  \nhttp://postimage.co.nr/2016/8/advocate/2.html  \nhttp://postimage.co.nr/2016/8/advocate/3.html  \nhttp://postimage.co.nr/2016/8/advocate/4.html  \nhttp://postimage.co.nr/2016/8/advocate/5.html  \nhttp://postimage.co.nr/2016/8/advocate/6.html  \nhttp://postimage.co.nr/2016/8/advocate/7.html  \nhttp://postimage.co.nr/2016/8/advocate/8.html  \nhttp://postimage.co.nr/2016/8/advocate/9.html  \nhttp://postimage.co.nr/2016/8/advocate/10.html\r\n\r\nFormat                                   : Matroska\r\nFormat version                           : Version 4 / Version 2\r\nFile size                                : 699 MiB\r\nDuration                                 : 1 h 18 min\r\nOverall bit rate mode                    : Constant\r\nOverall bit rate                         : 1 243 kb/s\r\nMovie name                               : 18+ Black Widows 2016 UNCENSORED English Movies HDRip XviD AAC New Source ☻rDX☻\r\n\r\nVideo\r\nID                                       : 2\r\nFormat                                   : AVC\r\nFormat/Info                              : Advanced Video Codec\r\nFormat profile                           :   \r\nFormat settings, CABAC                   : Yes\r\nFormat settings, ReFrames                : 2 frames\r\nFormat settings, GOP                     : M=1, N=12\r\nCodec ID                                 : V_MPEG4/ISO/AVC\r\nDuration                                 : 1 h 18 min\r\nBit rate mode                            : Constant\r\nBit rate                                 : 860 kb/s\r\nWidth                                    : 720 pixels\r\nHeight                                   : 320 pixels\r\nDisplay aspect ratio                     : 2.25:1\r\nFrame rate mode                          : Constant\r\nFrame rate                               : 23.976 FPS\r\nColor space                              : YUV\r\nChroma subsampling                       : 4:2:0\r\nBit depth                                : 8 bits\r\nScan type                                : Progressive\r\nBits/(Pixel*Frame)                       : 0.156\r\nStream size                              : 469 MiB (67%)\r\nTitle                                    : ☻rDX☻\r\nDefault                                  : Yes\r\nForced                                   : No\r\n\r\nAudio\r\nID                                       : 1\r\nFormat                                   : AC-3\r\nFormat/Info                              : Audio Coding 3\r\nMode extension                           : CM (complete main)\r\nFormat settings, Endianness              : Big\r\nCodec ID                                 : A_AC3\r\nDuration                                 : 1 h 18 min\r\nBit rate mode                            : Constant\r\nBit rate                                 : 384 kb/s\r\nChannel(s)                               : 6 channels\r\nChannel positions                        : Front: L C R, Side: L R, LFE\r\nSampling rate                            : 48.0 kHz\r\nFrame rate                               : 31.250 FPS (1536 spf)\r\nCompression mode                         : Lossy\r\nStream size                              : 216 MiB (31%)\r\nTitle                                    : ☻rDX☻\r\nDefault                                  : Yes\r\nForced                                   : No\r\n\r\nIMDB \nhttp://www.imdb.com/title/tt3986932/","torrent":{"xt":"urn:btih:96feeba287615a1586d595814a732cc3cf82c914","amp;dn":"18%2B+Black+Widows+2016+UNCENSORED+Movies+HDRip+XviD+New+%7E+%E2%98%BBrDX%E2%98%BB","amp;tr":["udp%3A%2F%2Ftracker.leechers-paradise.org%3A6969","udp%3A%2F%2Fzer0day.ch%3A1337","udp%3A%2F%2Fopen.demonii.com%3A1337","udp%3A%2F%2Ftracker.coppersurfer.tk%3A6969","udp%3A%2F%2Fexodus.desync.com%3A6969"],"infoHash":"96feeba287615a1586d595814a732cc3cf82c914","infoHashBuffer":{"type":"Buffer","data":[150,254,235,162,135,97,90,21,134,213,149,129,74,115,44,195,207,130,201,20]},"announce":[],"urlList":[]}}